<svg xmlns="http://www.w3.org/2000/svg" viewBox="0 0 17 17"><defs><style>.cls-1{fill:#48655d;}</style></defs><title>ic-dashboard</title><g id="Layer_2" data-name="Layer 2"><g id="Layer_1-2" data-name="Layer 1"><path id="ic-dashboard" class="cls-1" d="M6.55,5.67H1.24A1.25,1.25,0,0,1,0,4.43V1.24A1.25,1.25,0,0,1,1.24,0H6.55A1.25,1.25,0,0,1,7.79,1.24V4.43A1.25,1.25,0,0,1,6.55,5.67ZM6.55,17H1.24A1.25,1.25,0,0,1,0,15.76V8.32A1.25,1.25,0,0,1,1.24,7.08H6.55A1.25,1.25,0,0,1,7.79,8.32v7.44A1.25,1.25,0,0,1,6.55,17Zm9.21,0H10.45a1.24,1.24,0,0,1-1.24-1.24V12.57a1.24,1.24,0,0,1,1.24-1.24h5.31A1.25,1.25,0,0,1,17,12.57v3.19A1.25,1.25,0,0,1,15.76,17Zm0-7.08H10.45A1.24,1.24,0,0,1,9.21,8.68V1.24A1.24,1.24,0,0,1,10.45,0h5.31A1.25,1.25,0,0,1,17,1.24V8.68a1.25,1.25,0,0,1-1.24,1.24Z"/></g></g></svg>